<svg width="24" height="25" viewBox="0 0 24 25" fill="none" xmlns="http://www.w3.org/2000/svg">
<path fill-rule="evenodd" clip-rule="evenodd" d="M0 2.49487C0 1.96444 0.180612 1.45573 0.502103 1.08066C0.823593 0.705587 1.25963 0.494873 1.71429 0.494873H22.2857C22.7404 0.494873 23.1764 0.705587 23.4979 1.08066C23.8194 1.45573 24 1.96444 24 2.49487C24 3.02531 23.8194 3.53401 23.4979 3.90909C23.1764 4.28416 22.7404 4.49487 22.2857 4.49487H1.71429C1.25963 4.49487 0.823593 4.28416 0.502103 3.90909C0.180612 3.53401 0 3.02531 0 2.49487Z" fill="white"/>
<path fill-rule="evenodd" clip-rule="evenodd" d="M0 12.4949C0 11.9644 0.180612 11.4557 0.502103 11.0807C0.823593 10.7056 1.25963 10.4949 1.71429 10.4949H22.2857C22.7404 10.4949 23.1764 10.7056 23.4979 11.0807C23.8194 11.4557 24 11.9644 24 12.4949C24 13.0253 23.8194 13.534 23.4979 13.9091C23.1764 14.2842 22.7404 14.4949 22.2857 14.4949H1.71429C1.25963 14.4949 0.823593 14.2842 0.502103 13.9091C0.180612 13.534 0 13.0253 0 12.4949Z" fill="white"/>
<path fill-rule="evenodd" clip-rule="evenodd" d="M10.2856 22.4949C10.2856 21.9644 10.4663 21.4557 10.7877 21.0807C11.1092 20.7056 11.5453 20.4949 11.9999 20.4949H22.2857C22.7403 20.4949 23.1763 20.7056 23.4978 21.0807C23.8193 21.4557 23.9999 21.9644 23.9999 22.4949C23.9999 23.0253 23.8193 23.534 23.4978 23.9091C23.1763 24.2842 22.7403 24.4949 22.2857 24.4949H11.9999C11.5453 24.4949 11.1092 24.2842 10.7877 23.9091C10.4663 23.534 10.2856 23.0253 10.2856 22.4949Z" fill="white"/>
</svg>
